<svg width="27" height="27" viewBox="0 0 27 27" fill="none" xmlns="http://www.w3.org/2000/svg">
<ellipse cx="13.5265" cy="13.5" rx="13.4737" ry="13.5" fill="white"/>
<path d="M12.5008 18.2515C11.9998 18.6359 11.497 18.9967 11.0221 19.3915C10.4913 19.8336 10.0295 20.3455 9.79108 21.0151C9.71752 21.221 9.6123 21.2673 9.41954 21.2645C8.8776 21.255 8.33473 21.2513 7.79279 21.2654C7.50878 21.273 7.41939 21.2116 7.48271 20.8914C7.6317 20.1301 7.97344 19.4709 8.44088 18.8777C8.98469 18.1873 9.64395 17.6168 10.3461 17.0926C10.5453 16.9443 10.6701 16.9557 10.8656 17.1021C11.3983 17.5016 11.9533 17.8709 12.5008 18.2515Z" fill="#5B87E0"/>
<path d="M19.3624 20.4995C18.9462 19.1205 17.974 18.1845 16.8985 17.3326C15.9543 16.5845 14.8882 16.032 13.8788 15.3869C13.0705 14.8702 12.3535 14.2544 11.8209 13.4384C11.3627 12.7357 11.1355 11.9574 11.1793 11.1206C11.2529 9.70948 11.9093 8.57986 12.9076 7.63347C13.4467 7.12155 13.4616 7.11021 13.9849 7.60702C15.3398 8.89343 16.0577 10.4197 15.6014 12.338C15.3994 13.1881 14.8602 13.8455 14.2149 14.5038C14.8118 14.8702 15.3696 15.2093 15.9227 15.5559C16.0726 15.6494 16.175 15.6655 16.3147 15.5134C17.3436 14.3895 17.9955 13.0861 18.0132 11.5409C18.0495 8.42024 16.392 6.34328 13.862 4.83869C13.5817 4.67151 13.3014 4.69985 13.0221 4.85569C12.3107 5.25238 11.6728 5.74635 11.0908 6.31967C8.30199 9.06722 7.96863 13.3458 11.3022 16.2039C12.2697 17.0331 13.3843 17.6206 14.4431 18.3026L14.6041 18.4121C15.0343 18.738 15.4636 19.0525 15.8715 19.3925C16.4022 19.8345 16.8641 20.3465 17.1025 21.0161C17.176 21.222 17.2813 21.2683 17.474 21.2655C17.9191 21.2579 18.3642 21.2541 18.8102 21.2607L18.8121 21.2617C18.8363 21.2617 18.8568 21.2617 18.8791 21.2617C18.9527 21.2626 19.0272 21.2636 19.1008 21.2655C19.2032 21.2683 19.2805 21.2617 19.3345 21.2371C19.5691 21.1852 19.5198 21.0208 19.3624 20.4995Z" fill="#5B87E0"/>
</svg>
