<svg id="레이어_1" data-name="레이어 1" xmlns="http://www.w3.org/2000/svg" viewBox="0 0 500 500"><defs><style>.cls-1{fill:#070a25;}</style></defs><path class="cls-1" d="M40.06,376.71v-3.77c3.34-1.94,5.71-3.38,7.11-4.35q1-12.75,1-47.76,0-15.15-.32-25.33t-1-11.63a2.19,2.19,0,0,0-.94-1.09q-1.09-.57-10.67-1.74V275q10.95.36,25.17.36L96.2,275q19.5,0,29.63,4.93A37.29,37.29,0,0,1,141.89,295q5.94,10.15,6,24.66,0,18.64-9.28,32.13T115.93,371a71.5,71.5,0,0,1-28.51,5.73l-27.49-.51Q53.33,376.2,40.06,376.71Zm29.37-9a70.47,70.47,0,0,0,12.48,1.09q16.17,0,24.66-4.63T120.32,349q5.25-10.53,5.25-25.9,0-20.22-10.44-30.8-9.21-9.42-30.1-9.42-4.5,0-15.6.72l-.58,45.18Q68.85,357.29,69.43,367.71Z"/><path class="cls-1" d="M152.31,370.11c4.55-.24,7.35-.7,8.42-1.38q1.08-.72,3.41-5.51,4.41-9.44,11.31-26.18l25.68-62.89h10.66l32.78,77.9q6.39,14.74,7.87,16.16t9.18,1.9v6.6q-11.82-.51-22.33-.51-12.56,0-23.86.51v-6.6c5.75-.23,9.08-.56,10-1a2.16,2.16,0,0,0,1.34-2.16q0-1.35-3-9.21l-4.79-12.11q-9-.23-20.11-.22-9.66,0-17.58.22L178,353.81q-1.31,3.35-3.19,9.92a9.7,9.7,0,0,0-.44,2.69,2.36,2.36,0,0,0,1.42,2.31q1.41.67,10.18,1.38v6.6q-7.11-.51-17.68-.51-10.08,0-16,.51Zm47.59-70.37L184.59,337q6.67.36,14.73.36,8.42,0,16.11-.36Z"/><path class="cls-1" d="M282.41,376.71v-6.09a53.48,53.48,0,0,0,8.63-.73,5.74,5.74,0,0,0,3-1.19,5.84,5.84,0,0,0,1.31-3.08q.51-3.12.87-22.9.21-14.06.22-28.7,0-28.77-.18-29.31c-.12-.37-1.83-.55-5.13-.55q-10.11,0-17.38.58c-2.81.24-4.39.49-4.76.73a2.33,2.33,0,0,0-.84,1.27q-.28.9-1.23,12.73h-6.24q.15-13.91-.72-23.94l.79-.58q22.84,1.1,44.47,1.09T353.42,275l.8,1.16q-1.38,10-2,23.36h-6c-.43-8.16-.87-12.57-1.3-13.26a3.26,3.26,0,0,0-2.32-1.1q-5.81-.94-23.07-.95c-1,0-1.54.15-1.74.44a13.05,13.05,0,0,0-.29,3.84l-.43,48.78q0,21.21.36,26t1.75,5.84q.94.66,11.45,1.53v6.09Q320,376.2,308,376.2,292.22,376.2,282.41,376.71Z"/><path class="cls-1" d="M355.42,370.11c4.55-.24,7.35-.7,8.42-1.38q1.08-.72,3.41-5.51,4.41-9.44,11.31-26.18l25.68-62.89H414.9l32.78,77.9q6.39,14.74,7.87,16.16t9.18,1.9v6.6q-11.82-.51-22.33-.51-12.54,0-23.86.51v-6.6c5.76-.23,9.08-.56,10-1a2.16,2.16,0,0,0,1.34-2.16q0-1.35-3-9.21L422,345.67q-9-.23-20.11-.22-9.66,0-17.58.22l-3.18,8.14q-1.31,3.35-3.19,9.92a9.7,9.7,0,0,0-.44,2.69,2.36,2.36,0,0,0,1.42,2.31q1.41.67,10.18,1.38v6.6q-7.1-.51-17.68-.51c-6.72,0-12.05.17-16,.51ZM403,299.74,387.7,337q6.68.36,14.73.36,8.42,0,16.11-.36Z"/><path class="cls-1" d="M72.69,127.6V247.46H427.31V127.6ZM177.16,161H171q-.68-12.5-1.34-13.54a3.29,3.29,0,0,0-2.37-1.12q-5.92-1-23.55-1c-1,0-1.58.14-1.78.44a13.11,13.11,0,0,0-.3,3.93l-.44,49.82q0,21.65.37,26.58c.25,3.28.84,5.27,1.79,6q1,.68,11.69,1.56v6.22q-10.9-.51-23.15-.52-16.09,0-26.11.52v-6.22a55.93,55.93,0,0,0,8.82-.74,5.81,5.81,0,0,0,3-1.22,6,6,0,0,0,1.34-3.14q.51-3.19.89-23.39.21-14.35.22-29.31,0-29.38-.19-29.94c-.12-.37-1.87-.55-5.23-.55q-10.32,0-17.75.59c-2.87.25-4.49.49-4.86.74a2.33,2.33,0,0,0-.86,1.3q-.3.91-1.26,13H83.61q.15-14.19-.74-24.45l.81-.59q23.34,1.11,45.41,1.11T178.35,136l.81,1.19Q177.77,147.35,177.16,161Zm117.78,53.88a49.16,49.16,0,0,1-20,19.56q-12.91,6.93-31,6.92-27.33,0-41.85-14t-14.52-38.63q0-17.19,7-29.22A47.19,47.19,0,0,1,214.09,141q12.48-6.45,32.11-6.45,18.89,0,30.89,6.19A44.6,44.6,0,0,1,295.57,158q6.48,11,6.48,27Q302.05,202.29,294.94,214.91Zm126.91-72.7c-5,.49-7.88,1.09-8.67,1.78q-1.79,1.41-8.59,17L381.8,215.55a265.3,265.3,0,0,0-9.95,25.84h-10.8l-26.21-62.83q-9-21.48-12.66-29.1-2.07-4.52-3.59-5.51c-1-.67-4.19-1.25-9.52-1.74V136q14.07.51,25.76.52,10.37,0,22.73-.52v6.22c-5.73.4-9.15.85-10.26,1.37a2.6,2.6,0,0,0-1.67,2.48q0,2.15,6.22,17.48l21,51.11,16.75-41.33q9.26-22.81,9.26-27.41a2.52,2.52,0,0,0-1.59-2.44q-1.61-.74-10.83-1.26V136q13.59.51,18.2.52,4.81,0,17.23-.52Z"/><path class="cls-1" d="M270.46,221.92q-8.85,11-23.74,11-11.92,0-19.37-4.85t-12.26-15.86q-4.82-11-4.82-26.88,0-22,8.78-32.62t24.78-10.6q17.11,0,25.33,10.16,10.15,12.6,10.15,36.17Q279.31,210.92,270.46,221.92Z"/></svg>