<svg id="레이어_1" data-name="레이어 1" xmlns="http://www.w3.org/2000/svg" viewBox="0 0 256 256"><defs><style>.cls-1{fill:#3c7ab5;}.cls-2{fill:none;stroke:#3c7ab5;stroke-linecap:round;stroke-linejoin:round;stroke-width:8px;}.cls-3{fill:#fff;}</style></defs><path class="cls-1" d="M119.09,100.05h0a15.34,15.34,0,0,0-4.51-10.87h0a14.71,14.71,0,0,1-4.3-10.38V77.52h-9.09v1.11A24.5,24.5,0,0,0,108.37,96h0a5.8,5.8,0,0,1,1.69,4.09h9Z"/><path class="cls-1" d="M86,100.05h0a15.34,15.34,0,0,0-4.51-10.87h0a14.71,14.71,0,0,1-4.3-10.38V77.52H68.06v1.11A24.5,24.5,0,0,0,75.24,96h0a5.8,5.8,0,0,1,1.69,4.09h9Z"/><path class="cls-1" d="M132,100.05h0a15.34,15.34,0,0,1,4.51-10.87h0a14.71,14.71,0,0,0,4.3-10.38V77.52h9.09v1.11A24.5,24.5,0,0,1,142.7,96h0a5.8,5.8,0,0,0-1.69,4.09h-9Z"/><path class="cls-1" d="M165.11,100.05h0a15.34,15.34,0,0,1,4.51-10.87h0a14.71,14.71,0,0,0,4.3-10.38V77.52H183v1.11A24.5,24.5,0,0,1,175.83,96h0a5.8,5.8,0,0,0-1.69,4.09h-9Z"/><rect class="cls-2" x="58.76" y="99.48" width="133.49" height="89.13"/><path class="cls-2" d="M52.37,188.61H198.63a2.65,2.65,0,0,1,2.65,2.65v0a15.42,15.42,0,0,1-15.42,15.42H65.14a15.42,15.42,0,0,1-15.42-15.42v0a2.65,2.65,0,0,1,2.65-2.65Z"/><circle class="cls-1" cx="106.34" cy="68.39" r="12.75"/><circle class="cls-1" cx="73.21" cy="68.39" r="12.75"/><circle class="cls-1" cx="144.74" cy="67.89" r="12.75"/><circle class="cls-1" cx="177.86" cy="67.89" r="12.75"/><path class="cls-3" d="M125.43,160.29a13.17,13.17,0,1,1,13.17-13.17A13.19,13.19,0,0,1,125.43,160.29Z"/><path class="cls-1" d="M125.43,138.44a8.68,8.68,0,1,1-8.67,8.68,8.69,8.69,0,0,1,8.67-8.68m0-9a17.68,17.68,0,1,0,17.67,17.68,17.68,17.68,0,0,0-17.67-17.68Z"/><rect class="cls-1" x="120.74" y="119.43" width="9.31" height="15.81" rx="4.66"/><rect class="cls-1" x="120.74" y="159" width="9.31" height="15.81" rx="4.66"/><rect class="cls-1" x="138.45" y="129.31" width="9.31" height="15.81" rx="4.66" transform="translate(190.38 -55.33) rotate(60)"/><rect class="cls-1" x="138.45" y="149.63" width="9.31" height="15.81" rx="4.66" transform="translate(-64.87 202.69) rotate(-60)"/><rect class="cls-1" x="103.1" y="129.31" width="9.31" height="15.81" rx="4.66" transform="translate(280.46 112.49) rotate(120)"/><rect class="cls-1" x="103.1" y="149.63" width="9.31" height="15.81" rx="4.66" transform="translate(25.21 329.61) rotate(-120)"/></svg>