<svg id="레이어_1" data-name="레이어 1" xmlns="http://www.w3.org/2000/svg" viewBox="0 0 256 256"><defs><style>.cls-1,.cls-2{fill:none;stroke:#3c7ab5;stroke-linecap:round;stroke-linejoin:round;}.cls-1{stroke-width:9px;}.cls-2{stroke-width:6px;}.cls-3{fill:#fff;}.cls-4{fill:#3c7ab5;}</style></defs><path class="cls-1" d="M198.52,202.38H63.28a5.81,5.81,0,0,1-5.8-5.81V70.16"/><line class="cls-1" x1="86.29" y1="185.27" x2="86.29" y2="157.62"/><line class="cls-1" x1="113.07" y1="185.27" x2="113.07" y2="119.17"/><line class="cls-1" x1="139.84" y1="185.27" x2="139.84" y2="137.8"/><line class="cls-1" x1="166.61" y1="185.27" x2="166.61" y2="104.09"/><polyline class="cls-2" points="82.77 109.41 109.83 90.34 139.11 104.53 167.5 78.8"/><path class="cls-3" d="M82.77,115a5.55,5.55,0,1,1,5.55-5.55A5.56,5.56,0,0,1,82.77,115Z"/><path class="cls-4" d="M82.77,105.86a3.55,3.55,0,1,1-3.55,3.55,3.55,3.55,0,0,1,3.55-3.55m0-4a7.55,7.55,0,1,0,7.55,7.55,7.56,7.56,0,0,0-7.55-7.55Z"/><path class="cls-3" d="M109.83,95.88a5.55,5.55,0,1,1,5.55-5.54A5.55,5.55,0,0,1,109.83,95.88Z"/><path class="cls-4" d="M109.83,86.79a3.55,3.55,0,1,1-3.55,3.55,3.55,3.55,0,0,1,3.55-3.55m0-4a7.55,7.55,0,1,0,7.55,7.55,7.56,7.56,0,0,0-7.55-7.55Z"/><circle class="cls-3" cx="139.11" cy="104.53" r="5.55"/><path class="cls-4" d="M139.11,101a3.55,3.55,0,1,1-3.55,3.55,3.55,3.55,0,0,1,3.55-3.55m0-4a7.55,7.55,0,1,0,7.55,7.55A7.56,7.56,0,0,0,139.11,97Z"/><path class="cls-3" d="M167.5,84.35a5.55,5.55,0,1,1,5.55-5.55A5.56,5.56,0,0,1,167.5,84.35Z"/><path class="cls-4" d="M167.5,75.25A3.55,3.55,0,1,1,164,78.8a3.55,3.55,0,0,1,3.55-3.55m0-4a7.55,7.55,0,1,0,7.55,7.55,7.56,7.56,0,0,0-7.55-7.55Z"/></svg>