<svg id="레이어_1" data-name="레이어 1" xmlns="http://www.w3.org/2000/svg" viewBox="0 0 256 256"><defs><style>.cls-1{fill:#3c7ab5;}.cls-2{fill:none;}</style></defs><path class="cls-1" d="M117.15,136.4c-5.08,4.12-12,3.63-16.33-3.25-1.15,1.33-2.27,2.52-3.25,3.82a2.24,2.24,0,0,0-.21,1.55,13.47,13.47,0,0,1-7,14.19,13.32,13.32,0,0,1-15.64-2.54q-14-14-28.06-28a13.25,13.25,0,0,1-2.88-15.23A13.11,13.11,0,0,1,57.47,99.4a3.55,3.55,0,0,0,3.3-1.19Q79.49,79.45,98.28,60.76a3.21,3.21,0,0,0,1.11-3,13.16,13.16,0,0,1,7.49-13.91C112.09,41.42,118,42.6,122.41,47q13.77,13.73,27.52,27.47c4.46,4.46,5.58,10.41,2.94,15.69s-8.17,8.08-14.46,7.2a2.39,2.39,0,0,0-1.65.47c-1.19.94-2.28,2-3.46,3.09,6.77,4.22,7.29,11.09,3.13,16.25L150,129.05l37.51,32.65c6.32,5.51,12.71,10.94,18.95,16.53,11.27,10.1,8.54,27.35-5.22,33.49a20,20,0,0,1-23.19-5.48Q148.21,172,118.36,137.75ZM103,65.8,65.78,102.91l27.9,27.85,37.17-37.1Zm19,65.93c11.89,13.62,23.84,27.33,35.55,40.76l15-15L131.74,122Zm66.24,39.4-17.05,17c4.2,4.78,8.33,9.76,12.76,14.47a13.3,13.3,0,1,0,18.64-19C197.89,179.39,193,175.32,188.21,171.13ZM116.54,50.81a6.83,6.83,0,0,0-9.42,1.33l0,.06c-2,2.83-1.54,6.22,1.32,9.1q9.67,9.7,19.4,19.37c2.83,2.83,5.59,5.73,8.55,8.42a6.5,6.5,0,0,0,9.39-.3,6.58,6.58,0,0,0-.34-9.39c-9.32-9.35-18.64-18.7-28.07-27.95A5.39,5.39,0,0,0,116.54,50.81ZM83.29,147.54c3.64-.17,5.7-1.38,6.88-3.81s1.06-5.12-.89-7.09c-9.63-9.76-19.3-19.48-29.11-29a6.32,6.32,0,0,0-9.22.5,6.6,6.6,0,0,0,.33,9.27c9.37,9.4,18.74,18.79,28.21,28.08A13.68,13.68,0,0,0,83.29,147.54Zm27.55-15.19a11.19,11.19,0,0,0,2.17-1.47c4.36-4.27,8.66-8.6,13-12.91,1.8-1.8,3.63-3.56,5.38-5.4a3.25,3.25,0,0,0,.11-4.63,3.36,3.36,0,0,0-4.5-.3,3.86,3.86,0,0,0-.58.49q-9.18,9.16-18.35,18.33a4.34,4.34,0,0,0-.77,1.08C106.11,129.79,107.74,132.42,110.84,132.35Zm55.61,50.38,16.39-16.26-4.62-4L162.51,178.2Z"/><path class="cls-1" d="M84.91,97.51a13.78,13.78,0,0,1-2.73-2.58c-.79-1.31-.27-2.69.83-3.78L95.3,78.91c.63-.62,1.23-1.29,1.91-1.86a3.15,3.15,0,0,1,4.47.14,3.19,3.19,0,0,1,.17,4.47Q94.73,89,87.45,96.1A12.21,12.21,0,0,1,84.91,97.51Z"/><path class="cls-1" d="M75.81,106.45a3.33,3.33,0,1,1-.14-6.65,3.33,3.33,0,0,1,.14,6.65Z"/><path class="cls-2" d="M147.49,133,137,143.43l38,43.63,16.11-16Z"/><path class="cls-2" d="M112.68,72.88C99.42,86.12,86.05,99.48,72.9,112.6l29.86,29.8,39.78-39.71Z"/></svg>