<svg id="레이어_1" data-name="레이어 1" xmlns="http://www.w3.org/2000/svg" viewBox="0 0 128 128"><defs><style>.cls-1{fill:none;stroke:#274f9d;stroke-linecap:round;stroke-linejoin:round;stroke-width:8px;}.cls-2{fill:#274f9d;}</style></defs><circle class="cls-1" cx="64" cy="56.72" r="19"/><path class="cls-1" d="M99,112.72a35,35,0,0,0-70,0h0a170.55,170.55,0,0,0,70,0Z"/><path class="cls-2" d="M66,10.55l2,4a1.63,1.63,0,0,0,1.22.89l4.43.64a1.63,1.63,0,0,1,.9,2.77L71.27,22a1.62,1.62,0,0,0-.46,1.43l.75,4.41a1.62,1.62,0,0,1-2.35,1.71l-4-2.08a1.59,1.59,0,0,0-1.5,0l-4,2.08a1.62,1.62,0,0,1-2.35-1.71l.75-4.41A1.62,1.62,0,0,0,57.73,22l-3.21-3.12a1.63,1.63,0,0,1,.9-2.77l4.43-.64a1.63,1.63,0,0,0,1.22-.89l2-4A1.62,1.62,0,0,1,66,10.55Z"/></svg>