<svg id="레이어_1" data-name="레이어 1" xmlns="http://www.w3.org/2000/svg" viewBox="0 0 128 128"><defs><style>.cls-1,.cls-2{fill:none;stroke:#fff;stroke-linejoin:round;stroke-width:8px;}.cls-1{stroke-linecap:square;}.cls-2{stroke-linecap:round;}</style></defs><path class="cls-1" d="M26.81,59.5V85.33a9.87,9.87,0,0,0,5.85,9l27.5,12.27a9.9,9.9,0,0,0,8,0l27.5-12.27a9.88,9.88,0,0,0,5.86-9V59.5"/><path class="cls-2" d="M11.81,42.9a4.6,4.6,0,0,0,0,7.84L60.06,72.28a9.74,9.74,0,0,0,7.88,0l48.25-21.54a4.6,4.6,0,0,0,0-7.84L67.94,21.36a9.74,9.74,0,0,0-7.88,0Z"/><line class="cls-2" x1="118.39" y1="47.03" x2="118.39" y2="73.53"/></svg>