<svg id="레이어_1" data-name="레이어 1" xmlns="http://www.w3.org/2000/svg" viewBox="0 0 256 256"><defs><style>.cls-1,.cls-3{fill:none;stroke-linecap:round;stroke-linejoin:round;}.cls-1{stroke:#535e68;stroke-width:9px;}.cls-2{fill:#535e68;}.cls-3{stroke:#3c7ab5;stroke-width:8px;}</style></defs><path class="cls-1" d="M147.44,87.87l-24.26-42a6.06,6.06,0,0,0-10.5,0L31.24,186.91A6.06,6.06,0,0,0,36.49,196H199.37a6.06,6.06,0,0,0,5.25-9.09"/><path class="cls-2" d="M117.93,162a6,6,0,1,1,0,12.08,6,6,0,1,1,0-12.08Zm4.24-15.16a4,4,0,0,1-4.24,3.92,3.83,3.83,0,0,1-4.13-3.92c-.43-18.23-.85-36.35-1.17-54.58,0-2.86,2.55-4.34,5.41-4.34s5.51,1.48,5.51,4.34C123.12,110.44,122.7,128.56,122.17,146.79Z"/><polyline class="cls-3" points="183.17 162.36 216.45 172.97 191.57 123.24 169.26 134.17 154.38 104.55"/><line class="cls-3" x1="226.17" y1="142.32" x2="216.45" y2="172.97"/></svg>