<svg id="레이어_1" data-name="레이어 1" xmlns="http://www.w3.org/2000/svg" viewBox="0 0 256 256"><defs><style>.cls-1{fill:#535e68;}</style></defs><path class="cls-1" d="M198.82,76.06c.19,3.55-2.14,6.2-4.11,9-1.41,2-2.94,4-4.27,6a2.84,2.84,0,0,0-.15,2.22c1.2,3.15,2.62,6.21,3.79,9.37a2.17,2.17,0,0,0,2,1.65c3.53.54,7,1.19,10.57,1.85a10.59,10.59,0,0,1,9.13,10.74c.07,4.55,0,9.11,0,13.67,0,7.69-3.44,11.62-11.06,12.71-3.08.45-6.15,1-9.19,1.58a2.36,2.36,0,0,0-1.42,1.23c-1.33,3-2.49,6.13-3.83,9.15a2.61,2.61,0,0,0,.25,3.12c2,2.56,3.81,5.27,5.71,7.91,3.45,4.8,3.47,10.14-.47,14.46a166.17,166.17,0,0,1-12,11.77c-3.72,3.34-8.6,3.44-12.79.64-3.07-2-6.08-4.2-9.05-6.39a2.36,2.36,0,0,0-2.78-.25c-2.94,1.34-5.95,2.55-9,3.68a2.43,2.43,0,0,0-1.82,2.15q-.81,5.31-1.77,10.58a10.76,10.76,0,0,1-10.77,9.15q-7.62.1-15.24,0A10.73,10.73,0,0,1,109.85,203q-1-5.37-1.82-10.76a2,2,0,0,0-1.53-1.92c-3-1.09-5.94-2.28-8.82-3.6a2.43,2.43,0,0,0-2.82.31c-2.52,1.84-5.12,3.57-7.61,5.45-5.54,4.17-11.16,3.82-16.1-1.1q-4.56-4.54-9.12-9.12c-5-5-5.4-10.33-1.23-16,2-2.67,3.89-5.34,5.74-8.08a2.28,2.28,0,0,0,.15-1.83c-1.31-3.24-2.67-6.46-4.15-9.63a2.86,2.86,0,0,0-1.75-1.41c-3.63-.73-7.31-1.23-10.95-1.94a10.75,10.75,0,0,1-9.13-11q-.06-7.32,0-14.65c0-6,3.49-10.05,9.39-11.15,3.51-.65,7-1.17,10.55-1.87a2.58,2.58,0,0,0,1.57-1.33c1.41-3.2,2.75-6.44,4-9.73a2.81,2.81,0,0,0-.32-2.22c-2-3-4.24-5.92-6.29-8.94C56.27,77.53,56.85,72.07,61,67.88c3.26-3.27,6.51-6.57,9.81-9.8C75.7,53.31,80.91,53,86.45,56.94c2.69,1.93,5.42,3.78,8,5.77a1.84,1.84,0,0,0,2.23.25c3.19-1.45,6.45-2.72,9.64-4.16a2.35,2.35,0,0,0,1.17-1.48c.72-3.57,1.3-7.17,1.95-10.75,1.1-6.1,5.18-9.53,11.37-9.56,4.49,0,9,0,13.48,0,7,0,11,3.42,12.23,10.27.54,3.14,1.1,6.27,1.54,9.42a2.19,2.19,0,0,0,1.71,2c3.21,1.22,6.39,2.53,9.52,4a2.24,2.24,0,0,0,2.62-.23c3-2.19,6-4.36,9.08-6.42a10.63,10.63,0,0,1,13.89,1.33Q190.3,62.6,195.57,68A10.68,10.68,0,0,1,198.82,76.06ZM95.88,175.15c1.19.42,2.18.73,3.14,1.12,4.54,1.87,9,3.94,13.64,5.59a6.3,6.3,0,0,1,4.65,5.56c.61,4.25,1.41,8.46,2,12.7.24,1.66,1,2.29,2.69,2.24q6.34-.18,12.7,0c1.63,0,2.2-.67,2.42-2.09.67-4.24,1.45-8.46,2-12.71.43-3,1.94-4.74,4.92-5.77a147.74,147.74,0,0,0,13.78-5.74,6.08,6.08,0,0,1,6.73.48c3.68,2.66,7.39,5.26,11,7.95,1,.74,1.72.83,2.66-.14q4.75-4.92,9.68-9.67c1.05-1,.9-1.78.12-2.84-2.57-3.51-5-7.13-7.63-10.61-1.8-2.42-1.88-4.7-.59-7.43,2.09-4.44,4-9,5.66-13.61,1-2.81,2.65-4.27,5.54-4.68,4.25-.6,8.46-1.4,12.7-2,1.63-.25,2.33-.9,2.27-2.67-.12-4.16-.14-8.34,0-12.5.07-1.91-.74-2.48-2.42-2.72-4.24-.62-8.47-1.4-12.71-2a6,6,0,0,1-5.17-4.1c-1.91-5-3.87-9.88-6-14.71a6,6,0,0,1,.56-6.54c2.71-3.72,5.34-7.49,8.06-11.2a1.63,1.63,0,0,0-.22-2.52q-4.87-4.8-9.68-9.67c-1-1-1.69-.95-2.81-.1-3.59,2.7-7.31,5.21-10.92,7.88-2,1.5-4.19,1.94-6.36.66a68.26,68.26,0,0,0-15.62-6.45,4.82,4.82,0,0,1-3.55-4.19c-.77-4.61-1.64-9.21-2.33-13.83-.22-1.48-.83-2-2.27-1.94-4.36.06-8.73.07-13.09,0-1.58,0-2.19.59-2.41,2.08-.67,4.44-1.45,8.85-2.18,13.28a6,6,0,0,1-4.23,5.05c-4.83,1.84-9.57,3.93-14.29,6-2.41,1.08-4.52,1.17-6.73-.49-3.52-2.64-7.2-5.08-10.73-7.7-1.28-1-2.14-1-3.3.21-3,3.16-6.1,6.24-9.25,9.25-1.09,1-1.1,1.77-.23,3,2.82,3.82,5.5,7.74,8.26,11.6a5.32,5.32,0,0,1,.41,5.68c-2.16,5.06-4.19,10.18-6.19,15.3a5.08,5.08,0,0,1-4,3.58c-4.6.79-9.2,1.59-13.81,2.31-1.57.25-2.38.8-2.33,2.61q.2,6.26,0,12.5c-.06,1.86.7,2.51,2.42,2.77,4.43.68,8.84,1.51,13.27,2.23,2.53.4,3.86,1.86,4.77,4.23,1.85,4.83,3.93,9.58,6.06,14.29,1.06,2.35,1.15,4.4-.44,6.55-2.69,3.64-5.22,7.41-7.9,11.06a1.92,1.92,0,0,0,.25,3c3.09,3,6.15,6,9.11,9.12,1.2,1.26,2.11,1.29,3.47.28,3.59-2.68,7.26-5.28,11-7.82A22.54,22.54,0,0,1,95.88,175.15Z"/><path class="cls-1" d="M90.54,124.44c0-20.74,17.08-37.91,37.74-37.7a37.77,37.77,0,1,1-37.74,37.7Zm65.64.09a27.89,27.89,0,1,0-26.53,27.86C144.11,151.81,156.56,138.89,156.18,124.53Z"/></svg>