<svg id="레이어_1" data-name="레이어 1" xmlns="http://www.w3.org/2000/svg" viewBox="0 0 256 256"><defs><style>.cls-1,.cls-2{fill:none;stroke-linecap:round;stroke-linejoin:round;}.cls-1{stroke:#535e68;stroke-width:9px;}.cls-2{stroke:#3c7ab5;stroke-width:7px;}.cls-3{fill:#3c7ab5;}.cls-4{fill:#fff;}</style></defs><path class="cls-1" d="M211,174v22.24a6.54,6.54,0,0,1-6.54,6.54H177.88"/><path class="cls-1" d="M182.21,55.22h22.25A6.54,6.54,0,0,1,211,61.76V84.3"/><path class="cls-1" d="M45,84.2V61.76a6.54,6.54,0,0,1,6.54-6.54H74.47"/><path class="cls-1" d="M74,202.78H51.54A6.54,6.54,0,0,1,45,196.24V173.76"/><path class="cls-2" d="M128,103.08c-22.17,0-41.49,7.63-51.62,18.91a9.1,9.1,0,0,0,0,12.27c10.13,11.29,29.45,18.92,51.62,18.92s41.49-7.63,51.62-18.92a9.1,9.1,0,0,0,0-12.27C169.49,110.71,150.17,103.08,128,103.08Z"/><circle class="cls-2" cx="128" cy="128.47" r="23.8"/><circle class="cls-3" cx="128" cy="128.47" r="13.33"/><path class="cls-4" d="M124.07,115.73a13.39,13.39,0,0,0-8.81,8.81,6.66,6.66,0,1,0,8.81-8.81Z"/></svg>